<?xml version="1.0" standalone="no"?>
<!DOCTYPE svg PUBLIC "-//W3C//DTD SVG 20010904//EN"
        "http://www.w3.org/TR/2001/REC-SVG-20010904/DTD/svg10.dtd">
<svg version="1.0" xmlns="http://www.w3.org/2000/svg"
     width="700.000000pt" height="700.000000pt" viewBox="0 0 700.000000 700.000000"
     preserveAspectRatio="xMidYMid meet">
    <metadata>
        Created by potrace 1.11, written by Peter Selinger 2001-2013
    </metadata>
    <g transform="translate(0.000000,700.000000) scale(0.100000,-0.100000)"
       fill="#000000" stroke="none">
        <path d="M3298 6995 c-2 -1 -41 -5 -88 -9 -100 -7 -225 -22 -295 -36 -27 -5
-61 -12 -75 -14 -596 -109 -1206 -409 -1660 -817 -126 -114 -178 -166 -331
-335 -209 -230 -452 -625 -585 -952 -62 -151 -146 -411 -169 -520 -2 -9 -8
-37 -14 -62 -11 -49 -13 -63 -35 -195 -33 -200 -40 -298 -41 -560 0 -233 6
-337 30 -500 139 -951 668 -1810 1455 -2360 96 -67 85 -61 235 -151 236 -143
591 -295 842 -360 221 -57 460 -99 633 -112 127 -9 492 -9 610 1 1098 90 2113
726 2692 1686 266 443 443 981 485 1486 15 171 8 587 -12 725 -3 19 -7 56 -10
81 -3 25 -7 54 -9 65 -2 10 -11 60 -21 109 -151 809 -604 1553 -1265 2080
-414 330 -925 570 -1447 679 -98 21 -243 43 -393 61 -54 7 -526 16 -532 10z"/>
    </g>
</svg>
